<svg width="62" height="53" viewBox="0 0 62 53" fill="none" xmlns="http://www.w3.org/2000/svg">
<path d="M18.3239 0.000946321C17.3251 0.0141746 16.7259 0.10678 16.7259 0.10678L13.2102 0.424279L13.6364 3.91677C13.6364 3.91677 14.4753 11.6558 20.0284 17.3576C8.76243 19.0906 0 28.3246 0 39.5826C0 51.7269 5.44655 61.3577 11.8253 67.84C15.008 71.0812 18.3904 73.5285 21.6264 75.2483C24.8624 76.9681 27.832 78 30.6818 78C32.5462 78 34.3572 77.6825 36.0085 77.1533C37.0073 76.8358 37.9927 76.8358 38.9915 77.1533C40.6428 77.6825 42.4538 78 44.3182 78C47.4077 78 50.3773 76.7035 53.5867 74.7192C56.796 72.7348 60.1385 69.9831 63.2812 66.57C69.5668 59.757 75 50.2982 75 39.5826C75 27.081 64.1735 17.0401 51.1364 17.0401C47.6341 17.0401 44.3981 17.8868 41.4418 19.2626C41.4284 19.17 41.3619 19.0112 41.3352 18.8393C43.0797 9.80374 49.4318 6.45677 49.4318 6.45677L46.0227 0.530112C46.0227 0.530112 41.2154 3.40084 37.7131 9.52593C36.6078 7.84583 35.1429 6.19219 33.3452 4.76344C27.9386 0.477196 21.3068 -0.0255103 18.3239 0.000946321ZM21.6264 7.1976C23.9835 7.55479 26.8999 8.32208 29.0838 10.0551C31.3077 11.8146 32.7992 14.3943 33.6648 16.6168C31.2944 16.2728 28.3248 15.4129 26.1009 13.6534C23.9036 11.9072 22.492 9.40687 21.6264 7.1976ZM23.8636 23.8134C28.2981 23.8134 32.2399 25.4141 35.2628 27.9409L37.5 29.7401L39.7372 27.9409C42.7601 25.4141 46.7019 23.8134 51.1364 23.8134C60.6978 23.8134 68.1818 30.9704 68.1818 39.5826C68.1818 47.9831 63.7473 56.0925 58.2742 62.0192C55.5442 64.9825 52.5746 67.2976 49.9645 68.8983C47.3544 70.4991 44.984 71.2267 44.3182 71.2267C43.1996 71.2267 42.1475 71.0282 41.1222 70.6975C38.7784 69.9435 36.2216 69.9435 33.8778 70.6975C32.8525 71.0282 31.8004 71.2267 30.6818 71.2267C29.763 71.2267 27.4059 70.6975 24.8224 69.3217C22.239 67.9458 19.3093 65.816 16.6193 63.0775C11.2393 57.6007 6.81818 49.7425 6.81818 39.5826C6.81818 30.9704 14.3022 23.8134 23.8636 23.8134Z" fill="#9BB3AE"/>
</svg>
