<svg width="32" height="32" viewBox="0 0 32 32" fill="none" xmlns="http://www.w3.org/2000/svg">
<circle cx="16" cy="16" r="16" fill="white"/>
<path d="M24.0039 19.9961V22H19.9961C19.9961 22.5547 19.8906 23.0742 19.6797 23.5586C19.4688 24.043 19.1836 24.4648 18.8242 24.8242C18.4648 25.1836 18.041 25.4688 17.5527 25.6797C17.0645 25.8906 16.5469 25.9961 16 25.9961C15.4453 25.9961 14.9258 25.8906 14.4414 25.6797C13.957 25.4688 13.5352 25.1836 13.1758 24.8242C12.8164 24.4648 12.5312 24.043 12.3203 23.5586C12.1094 23.0742 12.0039 22.5547 12.0039 22H7.99609V19.9961H10V12.0039C10 11.1758 10.1562 10.3965 10.4688 9.66602C10.7812 8.93555 11.209 8.29883 11.752 7.75586C12.2949 7.21289 12.9316 6.78516 13.6621 6.47266C14.3926 6.16016 15.1719 6.00391 16 6.00391C16.8281 6.00391 17.6074 6.16016 18.3379 6.47266C19.0684 6.78516 19.7051 7.21289 20.248 7.75586C20.791 8.29883 21.2188 8.93555 21.5312 9.66602C21.8438 10.3965 22 11.1758 22 12.0039V19.9961H24.0039ZM19.9961 19.9961V12.0039C19.9961 11.457 19.8926 10.9395 19.6855 10.4512C19.4785 9.96289 19.1934 9.53711 18.8301 9.17383C18.4668 8.81055 18.043 8.52344 17.5586 8.3125C17.0742 8.10156 16.5547 7.99609 16 7.99609C15.4453 7.99609 14.9258 8.10156 14.4414 8.3125C13.957 8.52344 13.5332 8.81055 13.1699 9.17383C12.8066 9.53711 12.5215 9.96289 12.3145 10.4512C12.1074 10.9395 12.0039 11.457 12.0039 12.0039V19.9961H19.9961ZM16 24.0039C16.2734 24.0039 16.5312 23.9512 16.7734 23.8457C17.0156 23.7402 17.2285 23.5977 17.4121 23.418C17.5957 23.2383 17.7402 23.0254 17.8457 22.7793C17.9512 22.5332 18.0039 22.2734 18.0039 22H13.9961C13.9961 22.2734 14.0488 22.5332 14.1543 22.7793C14.2598 23.0254 14.4023 23.2383 14.582 23.418C14.7617 23.5977 14.9746 23.7402 15.2207 23.8457C15.4668 23.9512 15.7266 24.0039 16 24.0039Z" fill="#354B47"/>
</svg>
